<mxfile host="65bd71144e">
    <diagram id="sIXskIKcUEd6xxIgTbcs" name="Page-1">
        <mxGraphModel dx="1038" dy="592" grid="1" gridSize="10" guides="1" tooltips="1" connect="1" arrows="1" fold="1" page="1" pageScale="1" pageWidth="1920" pageHeight="1200" math="0" shadow="0">
            <root>
                <mxCell id="0"/>
                <mxCell id="1" parent="0"/>
                <mxCell id="30" value="Main" style="html=1;fontSize=10;verticalAlign=top;" parent="1" vertex="1">
                    <mxGeometry x="40" y="50" width="140" height="170" as="geometry"/>
                </mxCell>
                <mxCell id="43" style="edgeStyle=none;html=1;exitX=1;exitY=0.5;exitDx=0;exitDy=0;entryX=0;entryY=0.5;entryDx=0;entryDy=0;fontSize=10;" parent="1" source="32" target="36" edge="1">
                    <mxGeometry relative="1" as="geometry"/>
                </mxCell>
                <mxCell id="32" value="&lt;p style=&quot;margin: 4px 0px 0px ; text-align: center ; font-size: 10px&quot;&gt;&lt;i style=&quot;font-size: 10px&quot;&gt;&amp;lt;&amp;lt;Stateless Widget&amp;gt;&amp;gt;&lt;/i&gt;&lt;br style=&quot;font-size: 10px&quot;&gt;&lt;b style=&quot;font-size: 10px&quot;&gt;Zeus (main.dart)&lt;/b&gt;&lt;/p&gt;&lt;hr style=&quot;font-size: 10px&quot;&gt;&lt;p style=&quot;margin: 0px 0px 0px 4px ; font-size: 10px&quot;&gt;+ ...&lt;/p&gt;&lt;hr style=&quot;font-size: 10px&quot;&gt;&lt;p style=&quot;margin: 0px 0px 0px 4px ; font-size: 10px&quot;&gt;+ hasAccount: bool&lt;br style=&quot;font-size: 10px&quot;&gt;&lt;br style=&quot;font-size: 10px&quot;&gt;&lt;/p&gt;" style="verticalAlign=top;align=left;overflow=fill;fontSize=10;fontFamily=Helvetica;html=1;fillColor=#008a00;strokeColor=#005700;fontColor=#ffffff;" parent="1" vertex="1">
                    <mxGeometry x="50" y="80" width="120" height="120" as="geometry"/>
                </mxCell>
                <mxCell id="47" value="success" style="edgeStyle=none;html=1;exitX=1;exitY=0.5;exitDx=0;exitDy=0;entryX=0;entryY=0.5;entryDx=0;entryDy=0;fontSize=10;" parent="1" source="35" target="45" edge="1">
                    <mxGeometry relative="1" as="geometry"/>
                </mxCell>
                <mxCell id="35" value="&lt;p style=&quot;margin: 4px 0px 0px; text-align: center; font-size: 10px;&quot;&gt;&lt;i style=&quot;font-size: 10px;&quot;&gt;&amp;lt;&amp;lt;Stateless Widget&amp;gt;&amp;gt;&lt;/i&gt;&lt;br style=&quot;font-size: 10px;&quot;&gt;&lt;b style=&quot;font-size: 10px;&quot;&gt;LoginScreen&lt;/b&gt;&lt;/p&gt;&lt;hr style=&quot;font-size: 10px;&quot;&gt;&lt;p style=&quot;margin: 0px 0px 0px 4px; font-size: 10px;&quot;&gt;+ ...&lt;/p&gt;&lt;hr style=&quot;font-size: 10px;&quot;&gt;&lt;p style=&quot;margin: 0px 0px 0px 4px; font-size: 10px;&quot;&gt;+ build: Widget&lt;br style=&quot;font-size: 10px;&quot;&gt;&lt;br style=&quot;font-size: 10px;&quot;&gt;&lt;/p&gt;" style="verticalAlign=top;align=left;overflow=fill;fontSize=10;fontFamily=Helvetica;html=1;fillColor=#008a00;strokeColor=#005700;fontColor=#ffffff;" parent="1" vertex="1">
                    <mxGeometry x="370" y="80" width="120" height="120" as="geometry"/>
                </mxCell>
                <mxCell id="41" value="true" style="edgeStyle=none;html=1;exitX=1;exitY=0.5;exitDx=0;exitDy=0;fontSize=10;entryX=0;entryY=0.5;entryDx=0;entryDy=0;" parent="1" source="36" target="35" edge="1">
                    <mxGeometry relative="1" as="geometry">
                        <mxPoint x="310" y="160" as="targetPoint"/>
                    </mxGeometry>
                </mxCell>
                <mxCell id="44" value="false" style="edgeStyle=none;html=1;exitX=0.5;exitY=1;exitDx=0;exitDy=0;entryX=0.5;entryY=0;entryDx=0;entryDy=0;fontSize=10;" parent="1" source="36" target="42" edge="1">
                    <mxGeometry relative="1" as="geometry"/>
                </mxCell>
                <mxCell id="63" value="userAccountExists" style="edgeStyle=none;html=1;exitX=0.5;exitY=1;exitDx=0;exitDy=0;entryX=0.388;entryY=-0.025;entryDx=0;entryDy=0;fontSize=10;entryPerimeter=0;" parent="1" source="32" target="59" edge="1">
                    <mxGeometry relative="1" as="geometry"/>
                </mxCell>
                <mxCell id="36" value="Has&amp;nbsp;&lt;br&gt;Account" style="shape=rhombus;html=1;dashed=0;whitespace=wrap;perimeter=rhombusPerimeter;fontSize=10;" parent="1" vertex="1">
                    <mxGeometry x="230" y="100" width="80" height="80" as="geometry"/>
                </mxCell>
                <mxCell id="65" value="storeUserPassword" style="edgeStyle=none;html=1;exitX=0.5;exitY=1;exitDx=0;exitDy=0;entryX=0;entryY=0.65;entryDx=0;entryDy=0;entryPerimeter=0;" parent="1" source="42" target="60" edge="1">
                    <mxGeometry relative="1" as="geometry">
                        <Array as="points">
                            <mxPoint x="270" y="560"/>
                        </Array>
                    </mxGeometry>
                </mxCell>
                <mxCell id="42" value="&lt;p style=&quot;margin: 4px 0px 0px ; text-align: center ; font-size: 10px&quot;&gt;&lt;i style=&quot;font-size: 10px&quot;&gt;&amp;lt;&amp;lt;Stateless Widget&amp;gt;&amp;gt;&lt;/i&gt;&lt;br style=&quot;font-size: 10px&quot;&gt;&lt;b style=&quot;font-size: 10px&quot;&gt;NewUserPasswordScreen&lt;/b&gt;&lt;/p&gt;&lt;hr style=&quot;font-size: 10px&quot;&gt;&lt;p style=&quot;margin: 0px 0px 0px 4px ; font-size: 10px&quot;&gt;+ ...&lt;/p&gt;&lt;hr style=&quot;font-size: 10px&quot;&gt;&lt;p style=&quot;margin: 0px 0px 0px 4px ; font-size: 10px&quot;&gt;+ build: Widget&lt;br style=&quot;font-size: 10px&quot;&gt;&lt;br style=&quot;font-size: 10px&quot;&gt;&lt;/p&gt;" style="verticalAlign=top;align=left;overflow=fill;fontSize=10;fontFamily=Helvetica;html=1;fillColor=#008a00;strokeColor=#005700;fontColor=#ffffff;" parent="1" vertex="1">
                    <mxGeometry x="190" y="280" width="160" height="120" as="geometry"/>
                </mxCell>
                <mxCell id="51" style="edgeStyle=none;html=1;exitX=1;exitY=0.5;exitDx=0;exitDy=0;entryX=0;entryY=0.25;entryDx=0;entryDy=0;fontSize=10;" parent="1" source="45" target="50" edge="1">
                    <mxGeometry relative="1" as="geometry"/>
                </mxCell>
                <mxCell id="45" value="&lt;p style=&quot;margin: 4px 0px 0px ; text-align: center ; font-size: 10px&quot;&gt;&lt;i style=&quot;font-size: 10px&quot;&gt;&amp;lt;&amp;lt;Stateless Widget&amp;gt;&amp;gt;&lt;/i&gt;&lt;br style=&quot;font-size: 10px&quot;&gt;&lt;b style=&quot;font-size: 10px&quot;&gt;Home&lt;/b&gt;&lt;/p&gt;&lt;hr style=&quot;font-size: 10px&quot;&gt;&lt;p style=&quot;margin: 0px 0px 0px 4px ; font-size: 10px&quot;&gt;+ screens[]&lt;/p&gt;&lt;hr style=&quot;font-size: 10px&quot;&gt;&lt;p style=&quot;margin: 0px 0px 0px 4px ; font-size: 10px&quot;&gt;+ build: bottomNavigationBar&lt;br style=&quot;font-size: 10px&quot;&gt;&lt;br style=&quot;font-size: 10px&quot;&gt;&lt;/p&gt;" style="verticalAlign=top;align=left;overflow=fill;fontSize=10;fontFamily=Helvetica;html=1;fillColor=#008a00;strokeColor=#005700;fontColor=#ffffff;" parent="1" vertex="1">
                    <mxGeometry x="570" y="80" width="160" height="120" as="geometry"/>
                </mxCell>
                <mxCell id="48" value="&lt;p style=&quot;margin: 4px 0px 0px ; text-align: center ; font-size: 10px&quot;&gt;&lt;i style=&quot;font-size: 10px&quot;&gt;&amp;lt;&amp;lt;GetxController&amp;gt;&amp;gt;&lt;/i&gt;&lt;br style=&quot;font-size: 10px&quot;&gt;&lt;b style=&quot;font-size: 10px&quot;&gt;Home&lt;/b&gt;&lt;/p&gt;&lt;hr style=&quot;font-size: 10px&quot;&gt;&lt;p style=&quot;margin: 0px 0px 0px 4px ; font-size: 10px&quot;&gt;+ ...&lt;/p&gt;&lt;hr style=&quot;font-size: 10px&quot;&gt;&lt;p style=&quot;margin: 0px 0px 0px 4px ; font-size: 10px&quot;&gt;+ setCurrentTabIndex&lt;br style=&quot;font-size: 10px&quot;&gt;&lt;br style=&quot;font-size: 10px&quot;&gt;&lt;/p&gt;" style="verticalAlign=top;align=left;overflow=fill;fontSize=10;fontFamily=Helvetica;html=1;fillColor=#6a00ff;strokeColor=#3700CC;fontColor=#ffffff;" parent="1" vertex="1">
                    <mxGeometry x="590" y="280" width="120" height="120" as="geometry"/>
                </mxCell>
                <mxCell id="49" value="" style="endArrow=classic;startArrow=classic;html=1;fontSize=10;entryX=0.5;entryY=1;entryDx=0;entryDy=0;exitX=0.5;exitY=0;exitDx=0;exitDy=0;" parent="1" source="48" target="45" edge="1">
                    <mxGeometry width="50" height="50" relative="1" as="geometry">
                        <mxPoint x="460" y="200" as="sourcePoint"/>
                        <mxPoint x="510" y="150" as="targetPoint"/>
                    </mxGeometry>
                </mxCell>
                <mxCell id="50" value="" style="swimlane;startSize=0;fontSize=10;" parent="1" vertex="1">
                    <mxGeometry x="810" y="40" width="480" height="400" as="geometry">
                        <mxRectangle x="810" y="40" width="50" height="40" as="alternateBounds"/>
                    </mxGeometry>
                </mxCell>
                <mxCell id="53" value="&lt;p style=&quot;margin: 4px 0px 0px ; text-align: center ; font-size: 10px&quot;&gt;&lt;i style=&quot;font-size: 10px&quot;&gt;&amp;lt;&amp;lt;GetxController&amp;gt;&amp;gt;&lt;/i&gt;&lt;br style=&quot;font-size: 10px&quot;&gt;&lt;b style=&quot;font-size: 10px&quot;&gt;SecretHomeController&lt;/b&gt;&lt;/p&gt;&lt;hr style=&quot;font-size: 10px&quot;&gt;&lt;p style=&quot;margin: 0px 0px 0px 4px ; font-size: 10px&quot;&gt;+ ...&lt;/p&gt;&lt;hr style=&quot;font-size: 10px&quot;&gt;&lt;p style=&quot;margin: 0px 0px 0px 4px ; font-size: 10px&quot;&gt;+ ...&lt;br style=&quot;font-size: 10px&quot;&gt;&lt;br style=&quot;font-size: 10px&quot;&gt;&lt;/p&gt;" style="verticalAlign=top;align=left;overflow=fill;fontSize=10;fontFamily=Helvetica;html=1;fillColor=#6a00ff;strokeColor=#3700CC;fontColor=#ffffff;" parent="50" vertex="1">
                    <mxGeometry x="40" y="240" width="120" height="120" as="geometry"/>
                </mxCell>
                <mxCell id="55" value="&lt;p style=&quot;margin: 4px 0px 0px ; text-align: center ; font-size: 10px&quot;&gt;&lt;i style=&quot;font-size: 10px&quot;&gt;&amp;lt;&amp;lt;GetxController&amp;gt;&amp;gt;&lt;/i&gt;&lt;br style=&quot;font-size: 10px&quot;&gt;&lt;b style=&quot;font-size: 10px&quot;&gt;DIDHomeController&lt;/b&gt;&lt;/p&gt;&lt;hr style=&quot;font-size: 10px&quot;&gt;&lt;p style=&quot;margin: 0px 0px 0px 4px ; font-size: 10px&quot;&gt;+ ...&lt;/p&gt;&lt;hr style=&quot;font-size: 10px&quot;&gt;&lt;p style=&quot;margin: 0px 0px 0px 4px ; font-size: 10px&quot;&gt;+ ...&lt;br style=&quot;font-size: 10px&quot;&gt;&lt;br style=&quot;font-size: 10px&quot;&gt;&lt;/p&gt;" style="verticalAlign=top;align=left;overflow=fill;fontSize=10;fontFamily=Helvetica;html=1;fillColor=#6a00ff;strokeColor=#3700CC;fontColor=#ffffff;" parent="50" vertex="1">
                    <mxGeometry x="200" y="240" width="120" height="120" as="geometry"/>
                </mxCell>
                <mxCell id="52" value="&lt;p style=&quot;margin: 4px 0px 0px ; text-align: center ; font-size: 10px&quot;&gt;&lt;i style=&quot;font-size: 10px&quot;&gt;&amp;lt;&amp;lt;Stateless Widget&amp;gt;&amp;gt;&lt;/i&gt;&lt;br style=&quot;font-size: 10px&quot;&gt;&lt;b style=&quot;font-size: 10px&quot;&gt;SecretHomeScreen&lt;/b&gt;&lt;/p&gt;&lt;hr style=&quot;font-size: 10px&quot;&gt;&lt;p style=&quot;margin: 0px 0px 0px 4px ; font-size: 10px&quot;&gt;+ screens[]&lt;/p&gt;&lt;hr style=&quot;font-size: 10px&quot;&gt;&lt;p style=&quot;margin: 0px 0px 0px 4px ; font-size: 10px&quot;&gt;+ build: bottomNavigationBar&lt;br style=&quot;font-size: 10px&quot;&gt;&lt;br style=&quot;font-size: 10px&quot;&gt;&lt;/p&gt;" style="verticalAlign=top;align=left;overflow=fill;fontSize=10;fontFamily=Helvetica;html=1;fillColor=#008a00;strokeColor=#005700;fontColor=#ffffff;" parent="1" vertex="1">
                    <mxGeometry x="850" y="80" width="120" height="120" as="geometry"/>
                </mxCell>
                <mxCell id="54" value="" style="endArrow=classic;startArrow=classic;html=1;fontSize=10;entryX=0.5;entryY=1;entryDx=0;entryDy=0;exitX=0.5;exitY=0;exitDx=0;exitDy=0;" parent="1" source="53" target="52" edge="1">
                    <mxGeometry width="50" height="50" relative="1" as="geometry">
                        <mxPoint x="909.58" y="280" as="sourcePoint"/>
                        <mxPoint x="909.58" y="200" as="targetPoint"/>
                    </mxGeometry>
                </mxCell>
                <mxCell id="56" value="&lt;p style=&quot;margin: 4px 0px 0px ; text-align: center ; font-size: 10px&quot;&gt;&lt;i style=&quot;font-size: 10px&quot;&gt;&amp;lt;&amp;lt;Stateless Widget&amp;gt;&amp;gt;&lt;/i&gt;&lt;br style=&quot;font-size: 10px&quot;&gt;&lt;b style=&quot;font-size: 10px&quot;&gt;DIDHome&lt;/b&gt;&lt;/p&gt;&lt;hr style=&quot;font-size: 10px&quot;&gt;&lt;p style=&quot;margin: 0px 0px 0px 4px ; font-size: 10px&quot;&gt;+ screens[]&lt;/p&gt;&lt;hr style=&quot;font-size: 10px&quot;&gt;&lt;p style=&quot;margin: 0px 0px 0px 4px ; font-size: 10px&quot;&gt;+ build: bottomNavigationBar&lt;br style=&quot;font-size: 10px&quot;&gt;&lt;br style=&quot;font-size: 10px&quot;&gt;&lt;/p&gt;" style="verticalAlign=top;align=left;overflow=fill;fontSize=10;fontFamily=Helvetica;html=1;fillColor=#008a00;strokeColor=#005700;fontColor=#ffffff;" parent="1" vertex="1">
                    <mxGeometry x="1010" y="80" width="120" height="120" as="geometry"/>
                </mxCell>
                <mxCell id="57" value="" style="endArrow=classic;startArrow=classic;html=1;fontSize=10;entryX=0.5;entryY=1;entryDx=0;entryDy=0;exitX=0.5;exitY=0;exitDx=0;exitDy=0;" parent="1" source="55" target="56" edge="1">
                    <mxGeometry width="50" height="50" relative="1" as="geometry">
                        <mxPoint x="1069.58" y="280" as="sourcePoint"/>
                        <mxPoint x="1069.58" y="200" as="targetPoint"/>
                    </mxGeometry>
                </mxCell>
                <mxCell id="58" value="&lt;p style=&quot;margin: 4px 0px 0px ; text-align: center ; font-size: 10px&quot;&gt;&lt;i style=&quot;font-size: 10px&quot;&gt;&amp;lt;&amp;lt;Service&amp;gt;&amp;gt;&lt;/i&gt;&lt;br style=&quot;font-size: 10px&quot;&gt;&lt;b style=&quot;font-size: 10px&quot;&gt;CryptoService&lt;/b&gt;&lt;/p&gt;&lt;hr style=&quot;font-size: 10px&quot;&gt;&lt;p style=&quot;margin: 0px 0px 0px 4px ; font-size: 10px&quot;&gt;+ ...&lt;/p&gt;&lt;hr style=&quot;font-size: 10px&quot;&gt;&lt;p style=&quot;margin: 0px 0px 0px 4px ; font-size: 10px&quot;&gt;+ ...&lt;/p&gt;" style="verticalAlign=top;align=left;overflow=fill;fontSize=10;fontFamily=Helvetica;html=1;" parent="1" vertex="1">
                    <mxGeometry x="920" y="740" width="160" height="120" as="geometry"/>
                </mxCell>
                <mxCell id="66" value="containsUserPassword" style="edgeStyle=none;html=1;" edge="1" parent="1">
                    <mxGeometry relative="1" as="geometry">
                        <mxPoint x="211" y="630" as="sourcePoint"/>
                        <mxPoint x="368" y="660" as="targetPoint"/>
                    </mxGeometry>
                </mxCell>
                <mxCell id="59" value="&lt;p style=&quot;margin: 4px 0px 0px ; text-align: center ; font-size: 10px&quot;&gt;&lt;i style=&quot;font-size: 10px&quot;&gt;&amp;lt;&amp;lt;Service&amp;gt;&amp;gt;&lt;/i&gt;&lt;br style=&quot;font-size: 10px&quot;&gt;&lt;b style=&quot;font-size: 10px&quot;&gt;LoginService&lt;/b&gt;&lt;/p&gt;&lt;hr style=&quot;font-size: 10px&quot;&gt;&lt;p style=&quot;margin: 0px 0px 0px 4px ; font-size: 10px&quot;&gt;+ ...&lt;/p&gt;&lt;hr style=&quot;font-size: 10px&quot;&gt;&lt;p style=&quot;margin: 0px 0px 0px 4px ; font-size: 10px&quot;&gt;+ initLoginServices()&lt;/p&gt;&lt;p style=&quot;margin: 0px 0px 0px 4px ; font-size: 10px&quot;&gt;+ loginUser (String user)&lt;/p&gt;&lt;p style=&quot;margin: 0px 0px 0px 4px ; font-size: 10px&quot;&gt;+ resetUserLogin()&lt;/p&gt;&lt;p style=&quot;margin: 0px 0px 0px 4px ; font-size: 10px&quot;&gt;&lt;br&gt;&lt;/p&gt;&lt;p style=&quot;margin: 0px 0px 0px 4px ; font-size: 10px&quot;&gt;+ userAccountExists: bool&lt;/p&gt;" style="verticalAlign=top;align=left;overflow=fill;fontSize=10;fontFamily=Helvetica;html=1;" parent="1" vertex="1">
                    <mxGeometry x="50" y="520" width="160" height="130" as="geometry"/>
                </mxCell>
                <mxCell id="60" value="&lt;p style=&quot;margin: 4px 0px 0px ; text-align: center ; font-size: 10px&quot;&gt;&lt;i style=&quot;font-size: 10px&quot;&gt;&amp;lt;&amp;lt;Service&amp;gt;&amp;gt;&lt;/i&gt;&lt;br style=&quot;font-size: 10px&quot;&gt;&lt;b&gt;SecureDataStoreService&lt;/b&gt;&lt;/p&gt;&lt;hr style=&quot;font-size: 10px&quot;&gt;&lt;p style=&quot;margin: 0px 0px 0px 4px ; font-size: 10px&quot;&gt;+ ...&lt;/p&gt;&lt;hr style=&quot;font-size: 10px&quot;&gt;&lt;p style=&quot;margin: 0px 0px 0px 4px ; font-size: 10px&quot;&gt;+ initDataStore()&lt;/p&gt;&lt;p style=&quot;margin: 0px 0px 0px 4px ; font-size: 10px&quot;&gt;&lt;br&gt;&lt;/p&gt;&lt;p style=&quot;margin: 0px 0px 0px 4px ; font-size: 10px&quot;&gt;+ getSecrets()&lt;/p&gt;&lt;p style=&quot;margin: 0px 0px 0px 4px ; font-size: 10px&quot;&gt;+ inser / update / delete Secret()&lt;/p&gt;&lt;p style=&quot;margin: 0px 0px 0px 4px ; font-size: 10px&quot;&gt;&lt;br&gt;&lt;/p&gt;&lt;p style=&quot;margin: 0px 0px 0px 4px ; font-size: 10px&quot;&gt;+ storeHashedUserPassword(String pwd)&lt;/p&gt;&lt;p style=&quot;margin: 0px 0px 0px 4px ; font-size: 10px&quot;&gt;+ fetchHashedUserPassword: String&lt;/p&gt;&lt;p style=&quot;margin: 0px 0px 0px 4px ; font-size: 10px&quot;&gt;+ containsUserPassword: bool&lt;/p&gt;&lt;p style=&quot;margin: 0px 0px 0px 4px ; font-size: 10px&quot;&gt;&lt;br&gt;&lt;/p&gt;" style="verticalAlign=top;align=left;overflow=fill;fontSize=10;fontFamily=Helvetica;html=1;" parent="1" vertex="1">
                    <mxGeometry x="370" y="520" width="200" height="200" as="geometry"/>
                </mxCell>
                <mxCell id="61" value="&lt;p style=&quot;margin: 4px 0px 0px ; text-align: center ; font-size: 10px&quot;&gt;&lt;i style=&quot;font-size: 10px&quot;&gt;&amp;lt;&amp;lt;Service&amp;gt;&amp;gt;&lt;/i&gt;&lt;br style=&quot;font-size: 10px&quot;&gt;&lt;b&gt;ZenonManager&lt;/b&gt;&lt;/p&gt;&lt;hr style=&quot;font-size: 10px&quot;&gt;&lt;p style=&quot;margin: 0px 0px 0px 4px ; font-size: 10px&quot;&gt;+ ...&lt;/p&gt;&lt;hr style=&quot;font-size: 10px&quot;&gt;&lt;p style=&quot;margin: 0px 0px 0px 4px ; font-size: 10px&quot;&gt;+ ...&lt;/p&gt;" style="verticalAlign=top;align=left;overflow=fill;fontSize=10;fontFamily=Helvetica;html=1;" parent="1" vertex="1">
                    <mxGeometry x="930" y="520" width="160" height="120" as="geometry"/>
                </mxCell>
            </root>
        </mxGraphModel>
    </diagram>
</mxfile>